<svg width="245" height="170" viewBox="0 0 245 170" fill="none" xmlns="http://www.w3.org/2000/svg">
<path d="M206.5 61.5H160.5V15.5H91.5V153.5H206.5V61.5ZM201.739 50L172 20.261V50H201.739ZM85.75 4H172L218 50V159.25C218 160.775 217.394 162.238 216.316 163.316C215.238 164.394 213.775 165 212.25 165H85.75C84.225 165 82.7625 164.394 81.6841 163.316C80.6058 162.238 80 160.775 80 159.25V9.75C80 8.22501 80.6058 6.76247 81.6841 5.68414C82.7625 4.6058 84.225 4 85.75 4ZM114.5 84.5H183.5V96H114.5V84.5ZM114.5 50H143.25V61.5H114.5V50ZM114.5 119H183.5V130.5H114.5V119Z" fill="#1A89FC"/>
</svg>
