<svg width="245" height="169" viewBox="0 0 245 169" fill="none" xmlns="http://www.w3.org/2000/svg">
<path d="M245 15.3125V168.438H15.3125V137.812H0V0H214.375V15.3125H245ZM183.75 15.3125C183.75 17.4658 184.149 19.4596 184.946 21.2939C185.744 23.1283 186.82 24.7233 188.176 26.0791C189.532 27.4349 191.167 28.5514 193.081 29.4287C194.995 30.306 196.989 30.7048 199.062 30.625V15.3125H183.75ZM15.3125 30.625C17.4658 30.625 19.4596 30.2262 21.2939 29.4287C23.1283 28.6312 24.7233 27.5545 26.0791 26.1987C27.4349 24.8429 28.5514 23.208 29.4287 21.2939C30.306 19.3799 30.7048 17.3861 30.625 15.3125H15.3125V30.625ZM15.3125 91.875C19.5394 91.875 23.4871 92.6725 27.1558 94.2676C30.8244 95.8626 34.0942 98.0558 36.9653 100.847C39.8364 103.639 42.0296 106.868 43.5449 110.537C45.0602 114.206 45.8577 118.193 45.9375 122.5H168.438C168.438 118.273 169.235 114.325 170.83 110.657C172.425 106.988 174.618 103.718 177.41 100.847C180.201 97.9761 183.431 95.7829 187.1 94.2676C190.768 92.7523 194.756 91.9548 199.062 91.875V45.9375C194.836 45.9375 190.888 45.14 187.219 43.5449C183.551 41.9499 180.281 39.7567 177.41 36.9653C174.539 34.174 172.345 30.944 170.83 27.2754C169.315 23.6068 168.517 19.6191 168.438 15.3125H45.9375C45.9375 19.5394 45.14 23.4871 43.5449 27.1558C41.9499 30.8244 39.7567 34.0942 36.9653 36.9653C34.174 39.8364 30.944 42.0296 27.2754 43.5449C23.6068 45.0602 19.6191 45.8577 15.3125 45.9375V91.875ZM199.062 107.188C196.909 107.188 194.915 107.586 193.081 108.384C191.247 109.181 189.652 110.258 188.296 111.614C186.94 112.97 185.824 114.604 184.946 116.519C184.069 118.433 183.67 120.426 183.75 122.5H199.062V107.188ZM15.3125 122.5H30.625C30.625 120.347 30.2262 118.353 29.4287 116.519C28.6312 114.684 27.5545 113.089 26.1987 111.733C24.8429 110.378 23.208 109.261 21.2939 108.384C19.3799 107.507 17.3861 107.108 15.3125 107.188V122.5ZM229.688 30.625H214.375V137.812H30.625V153.125H229.688V30.625ZM53.5938 76.5625C51.5202 76.5625 49.7257 75.8049 48.2104 74.2896C46.6951 72.7743 45.9375 70.9798 45.9375 68.9062C45.9375 66.8327 46.6951 65.0382 48.2104 63.5229C49.7257 62.0076 51.5202 61.25 53.5938 61.25C55.6673 61.25 57.4618 62.0076 58.9771 63.5229C60.4924 65.0382 61.25 66.8327 61.25 68.9062C61.25 70.9798 60.4924 72.7743 58.9771 74.2896C57.4618 75.8049 55.6673 76.5625 53.5938 76.5625ZM160.781 76.5625C158.708 76.5625 156.913 75.8049 155.398 74.2896C153.883 72.7743 153.125 70.9798 153.125 68.9062C153.125 66.8327 153.883 65.0382 155.398 63.5229C156.913 62.0076 158.708 61.25 160.781 61.25C162.855 61.25 164.649 62.0076 166.165 63.5229C167.68 65.0382 168.438 66.8327 168.438 68.9062C168.438 70.9798 167.68 72.7743 166.165 74.2896C164.649 75.8049 162.855 76.5625 160.781 76.5625ZM107.188 107.188C102.961 107.188 99.0129 106.39 95.3442 104.795C91.6756 103.2 88.4058 101.007 85.5347 98.2153C82.6636 95.424 80.4704 92.194 78.9551 88.5254C77.4398 84.8568 76.6423 80.8691 76.5625 76.5625V61.25C76.5625 57.0231 77.36 53.0754 78.9551 49.4067C80.5501 45.7381 82.7433 42.4683 85.5347 39.5972C88.326 36.7261 91.556 34.5329 95.2246 33.0176C98.8932 31.5023 102.881 30.7048 107.188 30.625C111.414 30.625 115.362 31.4225 119.031 33.0176C122.699 34.6126 125.969 36.8058 128.84 39.5972C131.711 42.3885 133.905 45.6185 135.42 49.2871C136.935 52.9557 137.733 56.9434 137.812 61.25V76.5625C137.812 80.7894 137.015 84.7371 135.42 88.4058C133.825 92.0744 131.632 95.3442 128.84 98.2153C126.049 101.086 122.819 103.28 119.15 104.795C115.482 106.31 111.494 107.108 107.188 107.188ZM91.875 76.5625C91.875 78.7158 92.2738 80.7096 93.0713 82.5439C93.8688 84.3783 94.9455 85.9733 96.3013 87.3291C97.6571 88.6849 99.292 89.8014 101.206 90.6787C103.12 91.556 105.114 91.9548 107.188 91.875C109.341 91.875 111.335 91.4762 113.169 90.6787C115.003 89.8812 116.598 88.8045 117.954 87.4487C119.31 86.0929 120.426 84.458 121.304 82.5439C122.181 80.6299 122.58 78.6361 122.5 76.5625V61.25C122.5 59.0967 122.101 57.1029 121.304 55.2686C120.506 53.4342 119.43 51.8392 118.074 50.4834C116.718 49.1276 115.083 48.0111 113.169 47.1338C111.255 46.2565 109.261 45.8577 107.188 45.9375C105.034 45.9375 103.04 46.3363 101.206 47.1338C99.3717 47.9313 97.7767 49.008 96.4209 50.3638C95.0651 51.7196 93.9486 53.3545 93.0713 55.2686C92.194 57.1826 91.7952 59.1764 91.875 61.25V76.5625Z" fill="#1A89FC"/>
</svg>
